<?xml version="1.0" encoding="UTF-8"?>
<svg width="120" height="24" viewBox="0 0 120 24" fill="none" xmlns="http://www.w3.org/2000/svg">
  <path d="M8 12C8 13.1046 7.10457 14 6 14C4.89543 14 4 13.1046 4 12C4 10.8954 4.89543 10 6 10C7.10457 10 8 10.8954 8 12Z" fill="#05C2DC"/>
  <path d="M18 12C18 13.1046 17.1046 14 16 14C14.8954 14 14 13.1046 14 12C14 10.8954 14.8954 10 16 10C17.1046 10 18 10.8954 18 12Z" fill="#05C2DC"/>
  <path d="M12 10C12 11.1046 11.1046 12 10 12C8.89543 12 8 11.1046 8 10C8 8.89543 8.89543 8 10 8C11.1046 8 12 8.89543 12 10Z" fill="#05C2DC"/>
  <path d="M12 14C12 15.1046 11.1046 16 10 16C8.89543 16 8 15.1046 8 14C8 12.8954 8.89543 12 10 12C11.1046 12 12 12.8954 12 14Z" fill="#05C2DC"/>
  <path d="M7 4L17 4L12 9L7 4Z" fill="#05C2DC"/>
  <text x="24" y="16" font-family="Arial" font-size="14" font-weight="600" fill="#333333">Idea Ascend</text>
</svg>
